<svg data-v-423bf9ae="" xmlns="http://www.w3.org/2000/svg" viewBox="0 0 632 90" class="iconLeft"><!----><!----><!----><g data-v-423bf9ae="" id="c25810b8-2954-4b3f-acf9-7c75e5bde58b" fill="#ffffff" transform="matrix(6.054490506946714,0,0,6.054490506946714,99.0941763226574,12.457113826432519)"><path d="M9.17 10.19L7.23 10.19L7.23 6.06L2.95 6.06L2.95 10.19L0.94 10.19L0.94 0.56L2.95 0.56L2.95 4.40L7.23 4.40L7.23 0.56L9.17 0.56L9.17 10.19ZM18.90 10.19L11.05 10.19L11.05 0.56L18.62 0.56L18.62 2.12L13.06 2.12L13.06 4.54L18.20 4.54L18.20 6.10L13.06 6.10L13.06 8.63L18.90 8.63L18.90 10.19ZM30.17 10.19L28.38 10.19L28.38 4.35L28.38 4.35Q28.38 4.01 28.39 3.64L28.39 3.64L28.39 3.64Q28.40 3.27 28.42 2.96L28.42 2.96L28.42 2.96Q28.44 2.60 28.45 2.26L28.45 2.26L28.45 2.26Q28.31 2.80 28.18 3.28L28.18 3.28L28.18 3.28Q28.12 3.49 28.06 3.71L28.06 3.71L28.06 3.71Q28 3.92 27.94 4.13L27.94 4.13L27.94 4.13Q27.88 4.33 27.83 4.51L27.83 4.51L27.83 4.51Q27.77 4.69 27.73 4.82L27.73 4.82L26.00 10.19L24.56 10.19L22.83 4.82L22.83 4.82Q22.78 4.69 22.73 4.51L22.73 4.51L22.73 4.51Q22.68 4.33 22.62 4.13L22.62 4.13L22.62 4.13Q22.57 3.92 22.50 3.71L22.50 3.71L22.50 3.71Q22.44 3.49 22.38 3.28L22.38 3.28L22.38 3.28Q22.24 2.80 22.09 2.26L22.09 2.26L22.09 2.26Q22.11 2.65 22.13 3.04L22.13 3.04L22.13 3.04Q22.15 3.36 22.16 3.73L22.16 3.73L22.16 3.73Q22.18 4.09 22.18 4.35L22.18 4.35L22.18 10.19L20.38 10.19L20.38 0.56L23.08 0.56L24.81 5.95L24.81 5.95Q24.88 6.16 24.95 6.47L24.95 6.47L24.95 6.47Q25.03 6.77 25.11 7.06L25.11 7.06L25.11 7.06Q25.19 7.40 25.29 7.76L25.29 7.76L25.29 7.76Q25.38 7.40 25.47 7.08L25.47 7.08L25.47 7.08Q25.51 6.93 25.55 6.78L25.55 6.78L25.55 6.78Q25.59 6.63 25.63 6.49L25.63 6.49L25.63 6.49Q25.68 6.34 25.72 6.21L25.72 6.21L25.72 6.21Q25.76 6.08 25.79 5.98L25.79 5.98L27.49 0.56L30.17 0.56L30.17 10.19ZM39.97 3.61L39.97 3.61L39.97 3.61Q39.97 4.23 39.76 4.81L39.76 4.81L39.76 4.81Q39.55 5.39 39.12 5.83L39.12 5.83L39.12 5.83Q38.69 6.28 38.03 6.54L38.03 6.54L38.03 6.54Q37.37 6.80 36.46 6.80L36.46 6.80L34.06 6.80L34.06 10.19L32.05 10.19L32.05 0.56L36.37 0.56L36.37 0.56Q37.30 0.56 37.97 0.78L37.97 0.78L37.97 0.78Q38.65 1.00 39.09 1.41L39.09 1.41L39.09 1.41Q39.54 1.81 39.75 2.37L39.75 2.37L39.75 2.37Q39.97 2.93 39.97 3.61ZM37.94 3.64L37.94 3.64L37.94 3.64Q37.94 2.90 37.49 2.51L37.49 2.51L37.49 2.51Q37.04 2.13 36.15 2.13L36.15 2.13L34.06 2.13L34.06 5.25L36.20 5.25L36.20 5.25Q36.65 5.25 36.98 5.13L36.98 5.13L36.98 5.13Q37.30 5.02 37.52 4.81L37.52 4.81L37.52 4.81Q37.73 4.59 37.84 4.30L37.84 4.30L37.84 4.30Q37.94 4.00 37.94 3.64ZM49.69 0.56L46.15 10.19L44.11 10.19L40.54 0.56L42.65 0.56L44.63 6.75L44.63 6.75Q44.73 7.05 44.82 7.38L44.82 7.38L44.82 7.38Q44.91 7.70 44.98 7.96L44.98 7.96L44.98 7.96Q45.06 8.28 45.14 8.57L45.14 8.57L45.14 8.57Q45.21 8.29 45.28 7.98L45.28 7.98L45.28 7.98Q45.35 7.72 45.44 7.39L45.44 7.39L45.44 7.39Q45.53 7.07 45.63 6.75L45.63 6.75L47.61 0.56L49.69 0.56ZM58.49 10.19L56.49 10.19L55.64 7.73L51.97 7.73L51.11 10.19L49.10 10.19L52.61 0.56L54.99 0.56L58.49 10.19ZM55.19 6.21L54.24 3.45L54.24 3.45Q54.15 3.21 54.08 2.96L54.08 2.96L54.08 2.96Q54.00 2.72 53.94 2.52L53.94 2.52L53.94 2.52Q53.88 2.32 53.84 2.19L53.84 2.19L53.84 2.19Q53.81 2.06 53.80 2.04L53.80 2.04L53.80 2.04Q53.79 2.06 53.76 2.19L53.76 2.19L53.76 2.19Q53.72 2.32 53.67 2.52L53.67 2.52L53.67 2.52Q53.61 2.72 53.53 2.96L53.53 2.96L53.53 2.96Q53.45 3.21 53.37 3.45L53.37 3.45L52.42 6.21L55.19 6.21ZM67.72 3.61L67.72 3.61L67.72 3.61Q67.72 4.23 67.51 4.81L67.51 4.81L67.51 4.81Q67.30 5.39 66.87 5.83L66.87 5.83L66.87 5.83Q66.44 6.28 65.78 6.54L65.78 6.54L65.78 6.54Q65.11 6.80 64.20 6.80L64.20 6.80L61.81 6.80L61.81 10.19L59.79 10.19L59.79 0.56L64.12 0.56L64.12 0.56Q65.04 0.56 65.72 0.78L65.72 0.78L65.72 0.78Q66.40 1.00 66.84 1.41L66.84 1.41L66.84 1.41Q67.29 1.81 67.50 2.37L67.50 2.37L67.50 2.37Q67.72 2.93 67.72 3.61ZM65.69 3.64L65.69 3.64L65.69 3.64Q65.69 2.90 65.24 2.51L65.24 2.51L65.24 2.51Q64.79 2.13 63.90 2.13L63.90 2.13L61.81 2.13L61.81 5.25L63.95 5.25L63.95 5.25Q64.40 5.25 64.73 5.13L64.73 5.13L64.73 5.13Q65.05 5.02 65.27 4.81L65.27 4.81L65.27 4.81Q65.48 4.59 65.58 4.30L65.58 4.30L65.58 4.30Q65.69 4.00 65.69 3.64ZM78.50 5.33L78.50 5.33L78.50 5.33Q78.50 6.46 78.16 7.38L78.16 7.38L78.16 7.38Q77.83 8.31 77.20 8.96L77.20 8.96L77.20 8.96Q76.57 9.62 75.66 9.97L75.66 9.97L75.66 9.97Q74.76 10.33 73.62 10.33L73.62 10.33L73.62 10.33Q72.41 10.33 71.50 9.96L71.50 9.96L71.50 9.96Q70.59 9.58 69.99 8.92L69.99 8.92L69.99 8.92Q69.38 8.25 69.07 7.33L69.07 7.33L69.07 7.33Q68.77 6.42 68.77 5.33L68.77 5.33L68.77 5.33Q68.77 4.20 69.09 3.29L69.09 3.29L69.09 3.29Q69.41 2.39 70.02 1.75L70.02 1.75L70.02 1.75Q70.64 1.11 71.55 0.76L71.55 0.76L71.55 0.76Q72.45 0.42 73.63 0.42L73.63 0.42L73.63 0.42Q74.81 0.42 75.71 0.77L75.71 0.77L75.71 0.77Q76.62 1.11 77.24 1.76L77.24 1.76L77.24 1.76Q77.85 2.40 78.18 3.31L78.18 3.31L78.18 3.31Q78.50 4.21 78.50 5.33ZM76.44 5.33L76.44 5.33L76.44 5.33Q76.44 4.57 76.26 3.96L76.26 3.96L76.26 3.96Q76.08 3.35 75.72 2.91L75.72 2.91L75.72 2.91Q75.37 2.47 74.84 2.24L74.84 2.24L74.84 2.24Q74.32 2.00 73.63 2.00L73.63 2.00L73.63 2.00Q72.93 2.00 72.40 2.24L72.40 2.24L72.40 2.24Q71.87 2.47 71.51 2.91L71.51 2.91L71.51 2.91Q71.16 3.35 70.98 3.96L70.98 3.96L70.98 3.96Q70.80 4.57 70.80 5.33L70.80 5.33L70.80 5.33Q70.80 6.08 70.98 6.71L70.98 6.71L70.98 6.71Q71.16 7.33 71.52 7.79L71.52 7.79L71.52 7.79Q71.87 8.24 72.40 8.49L72.40 8.49L72.40 8.49Q72.93 8.74 73.62 8.74L73.62 8.74L73.62 8.74Q74.35 8.74 74.89 8.49L74.89 8.49L74.89 8.49Q75.42 8.23 75.77 7.78L75.77 7.78L75.77 7.78Q76.11 7.32 76.28 6.70L76.28 6.70L76.28 6.70Q76.44 6.07 76.44 5.33ZM87.88 7.42L87.88 7.42L87.88 7.42Q87.88 8.07 87.64 8.61L87.64 8.61L87.64 8.61Q87.40 9.15 86.90 9.53L86.90 9.53L86.90 9.53Q86.39 9.91 85.61 10.12L85.61 10.12L85.61 10.12Q84.83 10.33 83.75 10.33L83.75 10.33L83.75 10.33Q82.79 10.33 82.06 10.16L82.06 10.16L82.06 10.16Q81.33 9.99 80.80 9.65L80.80 9.65L80.80 9.65Q80.28 9.32 79.96 8.82L79.96 8.82L79.96 8.82Q79.63 8.33 79.49 7.68L79.49 7.68L81.44 7.36L81.44 7.36Q81.52 7.68 81.68 7.95L81.68 7.95L81.68 7.95Q81.83 8.22 82.11 8.41L82.11 8.41L82.11 8.41Q82.39 8.61 82.80 8.71L82.80 8.71L82.80 8.71Q83.21 8.82 83.80 8.82L83.80 8.82L83.80 8.82Q84.83 8.82 85.37 8.51L85.37 8.51L85.37 8.51Q85.91 8.20 85.91 7.53L85.91 7.53L85.91 7.53Q85.91 7.14 85.70 6.88L85.70 6.88L85.70 6.88Q85.48 6.63 85.11 6.47L85.11 6.47L85.11 6.47Q84.75 6.30 84.28 6.19L84.28 6.19L84.28 6.19Q83.81 6.08 83.30 5.98L83.30 5.98L83.30 5.98Q82.89 5.89 82.48 5.78L82.48 5.78L82.48 5.78Q82.07 5.68 81.69 5.54L81.69 5.54L81.69 5.54Q81.32 5.39 81.00 5.20L81.00 5.20L81.00 5.20Q80.68 5.00 80.44 4.71L80.44 4.71L80.44 4.71Q80.21 4.42 80.07 4.03L80.07 4.03L80.07 4.03Q79.94 3.64 79.94 3.11L79.94 3.11L79.94 3.11Q79.94 2.39 80.23 1.88L80.23 1.88L80.23 1.88Q80.51 1.37 81.02 1.04L81.02 1.04L81.02 1.04Q81.53 0.72 82.24 0.57L82.24 0.57L82.24 0.57Q82.94 0.42 83.77 0.42L83.77 0.42L83.77 0.42Q84.72 0.42 85.39 0.56L85.39 0.56L85.39 0.56Q86.06 0.71 86.52 1.01L86.52 1.01L86.52 1.01Q86.97 1.31 87.24 1.77L87.24 1.77L87.24 1.77Q87.50 2.22 87.62 2.83L87.62 2.83L85.67 3.10L85.67 3.10Q85.52 2.47 85.06 2.16L85.06 2.16L85.06 2.16Q84.59 1.85 83.73 1.85L83.73 1.85L83.73 1.85Q83.20 1.85 82.85 1.94L82.85 1.94L82.85 1.94Q82.50 2.03 82.29 2.19L82.29 2.19L82.29 2.19Q82.08 2.34 81.99 2.55L81.99 2.55L81.99 2.55Q81.90 2.76 81.90 2.99L81.90 2.99L81.90 2.99Q81.90 3.35 82.07 3.58L82.07 3.58L82.07 3.58Q82.24 3.81 82.55 3.96L82.55 3.96L82.55 3.96Q82.86 4.12 83.29 4.22L83.29 4.22L83.29 4.22Q83.71 4.33 84.23 4.44L84.23 4.44L84.23 4.44Q84.68 4.53 85.12 4.64L85.12 4.64L85.12 4.64Q85.57 4.74 85.97 4.89L85.97 4.89L85.97 4.89Q86.37 5.03 86.72 5.24L86.72 5.24L86.72 5.24Q87.07 5.44 87.33 5.74L87.33 5.74L87.33 5.74Q87.58 6.04 87.73 6.45L87.73 6.45L87.73 6.45Q87.88 6.86 87.88 7.42Z"></path></g><!----><g data-v-423bf9ae="" id="bcf38b47-36ba-42d9-8156-5fb4b6a5192b" transform="matrix(1.8,0,0,1.8,-2.551095199584964,0)" stroke="none" fill="#FFFFFF"><path clip-rule="evenodd" d="M43.848 20.592c-3.232 7.068-7.06 10.996-14.024 14.564 3.656.776 7.373 1.357 10.851 2.782-4.424 1.582-7.727 1.145-12.305.805 1.368 1.732 2.539 3.433 3.595 5.372-2.518-1.19-5.602-3.603-6.965-5.996-1.363 2.393-4.447 4.806-6.965 5.996 1.056-1.939 2.228-3.64 3.595-5.372-4.577.34-7.88.777-12.305-.805 3.477-1.425 7.194-2.006 10.851-2.782-6.964-3.568-10.792-7.496-14.024-14.564 7.542 2.487 10.81 5.913 16.418 10.886-.374-5.319-1.383-10.386-.299-15.711.599-2.946 1.602-5.777 2.729-8.572 1.127 2.796 2.129 5.627 2.729 8.572 1.084 5.325.075 10.392-.298 15.711 5.608-4.974 8.876-8.399 16.417-10.886M33.904 41.9c5.235-.007 8.636-1.566 13.216-3.954-3.295-1.665-6.327-3.259-10.003-4.041 6.117-4.646 8.793-10.64 11.434-17.536-6.676 1.774-12.289 3.497-17.625 8.254.374-3.33.139-6.439-.467-9.414C29.388 9.94 27.094 4.937 25 0c-2.093 4.937-4.388 9.94-5.46 15.21-.606 2.975-.841 6.084-.467 9.414-5.336-4.757-10.949-6.48-17.625-8.254 2.648 6.914 5.394 12.949 11.434 17.536-3.639.774-6.708 2.376-10.003 4.041 4.54 2.366 7.847 3.947 13.216 3.954-1.317 2.193-1.83 4.226-2.572 6.637 3.884-1.101 7.155-1.999 10.078-4.953V50h2.796v-6.415c2.974 3.006 6.218 3.858 10.078 4.953-.722-2.351-1.281-4.49-2.571-6.638z"></path></g><!----></svg>